<?xml version="1.0" encoding="UTF-8"?>
<svg width="16" height="16" version="1.1" viewBox="0 0 12 12" xmlns="http://www.w3.org/2000/svg">
 <g fill="#2b87da" stroke-width=".022556">
  <path d="m10.875 0.75h-9.75c-0.63749 0-1.125 0.48751-1.125 1.125v6c0 0.63749 0.48751 1.125 1.125 1.125h9.75c0.63749 0 1.125-0.48751 1.125-1.125v-6c0-0.63749-0.48751-1.125-1.125-1.125zm-7.9874 4.6126c0.14996 0.14996 0.14996 0.375 0 0.52496-0.07498 0.07498-0.14996 0.11252-0.26249 0.11252-0.11252 0-0.1875-0.03754-0.26249-0.11252l-0.75-0.75c-0.14996-0.14996-0.14996-0.375 0-0.52496l0.75-0.75c0.14996-0.14996 0.375-0.14996 0.52496 0 0.14996 0.14996 0.14996 0.375 0 0.52496l-0.48751 0.48751zm7.5-0.22504-0.75 0.75c-0.07498 0.07498-0.14996 0.11252-0.26249 0.11252-0.11252 0-0.1875-0.03754-0.26249-0.11252-0.14996-0.14996-0.14996-0.375 0-0.52496l0.48751-0.48751-0.48751-0.48751c-0.14996-0.14996-0.14996-0.375 0-0.52496 0.14996-0.14996 0.375-0.14996 0.52496 0l0.75 0.75c0.15005 0.14996 0.15005 0.375 0 0.52496z"/>
  <path d="m6.7501 10.5c0 0.4142-0.3358 0.75-0.75 0.75s-0.75-0.3358-0.75-0.75 0.3358-0.75 0.75-0.75 0.75 0.3358 0.75 0.75"/>
  <path d="m4.5001 10.5c0 0.4142-0.3358 0.75-0.75 0.75s-0.75-0.3358-0.75-0.75 0.3358-0.75 0.75-0.75 0.75 0.3358 0.75 0.75"/>
  <path d="m9.0001 10.5c0 0.4142-0.3358 0.75-0.75 0.75s-0.75-0.3358-0.75-0.75 0.3358-0.75 0.75-0.75 0.75 0.3358 0.75 0.75"/>
 </g>
</svg>
