<?xml version="1.0" encoding="UTF-8"?>
<svg width="16" height="16" version="1.1" viewBox="0 0 12 12" xmlns="http://www.w3.org/2000/svg">
 <path d="m11.818 0.91368h-11.636c-0.10045 0-0.18187 0.081398-0.18187 0.18174v9.809c0 0.04823 0.019125 0.0945 0.053325 0.1286 0.034125 0.03412 0.0804 0.05332 0.1286 0.05332h11.636c0.04823 0 0.0945-0.01913 0.12861-0.05332 0.034125-0.034126 0.053175-0.080401 0.053175-0.1286v-9.809c0-0.048225-0.01913-0.094298-0.05317-0.12847-0.03413-0.034125-0.0804-0.053325-0.12861-0.053325zm-7.5763 6.5363v-2.9091h3.5162v2.9091zm3.5162 0.36358v2.9092h-3.5162v-2.9092zm-7.3944-3.2727h3.5146v2.9091h-3.5146zm3.8782-0.3636v-2.9091h3.5162v2.9091zm3.8798 0.3636h3.5146v2.9091h-3.5146zm3.5146-0.3636h-3.5146v-2.9091h3.5146zm-7.7581-2.9091v2.9091h-3.5146v-2.9091zm-3.5146 6.5454h3.5146v2.9091h-3.5146zm7.7581 2.9091v-2.9091h3.5146v2.9091z" fill="#2b87da" stroke-width=".032467"/>
</svg>
