<?xml version="1.0" encoding="UTF-8"?>
<svg width="16pt" height="16pt" version="1.1" viewBox="0 0 16 16" xmlns="http://www.w3.org/2000/svg">
 <g fill="#2b87da" stroke-width=".041998">
  <path d="m15.291 4.2369c0-0.93557-0.37175-1.8328-1.0334-2.4945-0.66161-0.66163-1.5588-1.0334-2.4945-1.0334h-0.29168l-5.689 5.689c-0.84159 0.83617-1.3134 1.9746-1.31 3.161v1.9685h1.9685c1.1864 0.0036 2.3248-0.46836 3.161-1.31l5.689-5.689zm-6.6865 4.9835c-0.57256 0.57583-1.3517 0.89855-2.1637 0.89607h-0.55731v-0.55731c-0.0012152-0.81123 0.32072-1.5895 0.89607-2.1614l5.2585-5.2585c0.46282 0.060393 0.8928 0.27201 1.2229 0.60209 0.33006 0.33007 0.54186 0.76007 0.60225 1.2228z"/>
  <path d="m0.70919 13.644c0 0.4367 0.17357 0.85537 0.4823 1.1641 0.30875 0.30874 0.72741 0.4823 1.1641 0.4823h9.4075c0.43658 0 0.85537-0.17357 1.1641-0.4823 0.30875-0.30876 0.48213-0.72741 0.48213-1.1641v-2.587h-1.4112v2.587c0 0.06245-0.02479 0.12222-0.0689 0.16635-0.04411 0.04411-0.10389 0.0689-0.16619 0.0689h-9.4075c-0.12993 0-0.23526-0.10536-0.23526-0.23525v-9.4075c0-0.12976 0.10535-0.23509 0.23526-0.23509h2.587v-1.4112h-2.587c-0.4367 0-0.85537 0.1734-1.1641 0.48213-0.30875 0.30875-0.4823 0.72756-0.4823 1.1641z"/>
 </g>
</svg>
